<?xml version="1.0" encoding="UTF-8" standalone="no"?>
<!-- Created with Inkscape (http://www.inkscape.org/) -->

<svg
   width="91.243065mm"
   height="88.435417mm"
   viewBox="0 0 91.243065 88.435417"
   version="1.1"
   id="svg1"
   xml:space="preserve"
   inkscape:version="1.3 (0e150ed6c4, 2023-07-21)"
   sodipodi:docname="logo finsl.svg"
   xmlns:inkscape="http://www.inkscape.org/namespaces/inkscape"
   xmlns:sodipodi="http://sodipodi.sourceforge.net/DTD/sodipodi-0.dtd"
   xmlns:xlink="http://www.w3.org/1999/xlink"
   xmlns="http://www.w3.org/2000/svg"
   xmlns:svg="http://www.w3.org/2000/svg"><sodipodi:namedview
     id="namedview1"
     pagecolor="#505050"
     bordercolor="#ffffff"
     borderopacity="1"
     inkscape:showpageshadow="0"
     inkscape:pageopacity="0"
     inkscape:pagecheckerboard="1"
     inkscape:deskcolor="#505050"
     inkscape:document-units="mm"
     showguides="false"
     inkscape:zoom="1.0242632"
     inkscape:cx="-680.48914"
     inkscape:cy="223.08719"
     inkscape:window-width="1920"
     inkscape:window-height="1009"
     inkscape:window-x="-8"
     inkscape:window-y="-8"
     inkscape:window-maximized="1"
     inkscape:current-layer="layer1"><sodipodi:guide
       position="229.64608,260.62762"
       orientation="1,0"
       id="guide1"
       inkscape:locked="false" /></sodipodi:namedview><defs
     id="defs1">
     <inkscape:path-effect
       effect="bspline"
       id="path-effect8"
       is_visible="true"
       lpeversion="1.3"
       weight="33.333333"
       steps="2"
       helper_size="0"
       apply_no_weight="true"
       apply_with_weight="true"
       only_selected="false"
       uniform="false" /><inkscape:path-effect
       effect="bspline"
       id="path-effect7"
       is_visible="true"
       lpeversion="1.3"
       weight="33.333333"
       steps="2"
       helper_size="0"
       apply_no_weight="true"
       apply_with_weight="true"
       only_selected="false"
       uniform="false" /><inkscape:path-effect
       effect="bspline"
       id="path-effect5"
       is_visible="true"
       lpeversion="1.3"
       weight="33.333333"
       steps="2"
       helper_size="0"
       apply_no_weight="true"
       apply_with_weight="true"
       only_selected="false"
       uniform="false" /><inkscape:path-effect
       effect="bspline"
       id="path-effect7-0"
       is_visible="true"
       lpeversion="1.3"
       weight="33.333333"
       steps="2"
       helper_size="0"
       apply_no_weight="true"
       apply_with_weight="true"
       only_selected="false"
       uniform="false" /><inkscape:path-effect
       effect="bspline"
       id="path-effect7-5"
       is_visible="true"
       lpeversion="1.3"
       weight="33.333333"
       steps="2"
       helper_size="0"
       apply_no_weight="true"
       apply_with_weight="true"
       only_selected="false"
       uniform="false" /><inkscape:path-effect
       effect="bspline"
       id="path-effect8-0"
       is_visible="true"
       lpeversion="1.3"
       weight="33.333333"
       steps="2"
       helper_size="0"
       apply_no_weight="true"
       apply_with_weight="true"
       only_selected="false"
       uniform="false" /><inkscape:path-effect
       effect="bspline"
       id="path-effect5-9"
       is_visible="true"
       lpeversion="1.3"
       weight="33.333333"
       steps="2"
       helper_size="0"
       apply_no_weight="true"
       apply_with_weight="true"
       only_selected="false"
       uniform="false" /></defs><g
     inkscape:label="Camada 1"
     inkscape:groupmode="layer"
     id="layer1"
     transform="translate(-70.196016,-147.29867)"><g
       id="g12"
       transform="matrix(0.55171867,0,0,0.55171867,90.31115,162.29519)"><path
         id="path1"
         style="opacity:0.99;fill:#135670;stroke:#000000;stroke-width:2.241;stroke-dasharray:none"
         d="m 46.411121,-26.060942 c -40.1009286,0.06546 -73.985697,28.2833826 -80.392509,66.229033 h 6.05441 c 0.14187,-1.088676 0.274616,-2.14017 0.40566,-3.088701 0.226027,-1.636 0.376429,-2.604628 0.591696,-3.121256 0.215262,-0.516632 0.495082,-0.581199 1.625223,-0.624251 1.130145,-0.04305 3.11072,-0.06468 4.33772,-0.07545 1.227,-0.01076 1.7004,-0.01066 1.980241,0.07545 0.279841,0.0861 0.366299,0.257864 0.355534,0.946712 -0.01076,0.688848 -0.11873,1.894723 -0.290938,3.304708 -0.106236,0.869795 -0.196405,1.711498 -0.29869,2.582788 H -8.5255778 C -1.9219959,16.04968 20.655646,-1.3945763 47.169214,-1.4903483 73.621158,-1.444985 96.469921,15.944626 103.04694,40.469881 h 8.27133 c -0.10348,-0.999986 -0.23471,-2.052269 -0.34985,-2.938839 -0.21526,-1.657525 -0.34468,-2.647285 -0.34468,-3.260782 0,-0.613502 0.12917,-0.850361 0.75344,-0.947229 0.62427,-0.09687 1.74387,-0.05383 2.97088,-0.0646 1.22701,-0.01076 1.0546,0.01577 1.91564,0.04806 0.86106,0.03229 1.70528,-0.06651 1.88826,0.202572 0.18297,0.269082 0.75494,0.860137 0.87333,2.20555 0.10773,1.224128 0.67493,3.154926 0.92036,4.755265 h 6.96598 C 120.62414,2.3309518 86.624365,-26.025938 46.411121,-26.060942 Z m -81.660649,82.632166 c 3.148807,41.151117 38.9333015,75.316856 81.660649,75.417616 43.490273,-0.0833 79.191719,-33.164823 81.330439,-75.115826 h -7.46518 c -0.12855,0.572823 -0.21618,1.377872 -0.3638,2.647384 -0.16145,1.388461 -0.39818,3.218013 -0.80719,5.424475 -0.409,2.206462 -0.99068,4.789827 -2.24999,8.352462 -1.25931,3.56263 -3.19641,8.104428 -5.63428,12.570292 -2.43787,4.46586 -5.37631,8.8555 -8.12405,12.298474 -2.74778,3.442969 -5.305045,5.939529 -7.649149,8.024829 -2.344108,2.08535 -4.475074,3.75942 -6.269385,5.0953 -1.794311,1.33588 -3.251459,2.33353 -6.003768,3.81165 -2.752309,1.47816 -6.799198,3.43671 -11.072192,5.02967 -4.272998,1.59296 -8.772321,2.82 -12.808521,3.57343 -4.0362,0.75342 -7.609262,1.03337 -11.354862,1.07642 -3.745605,0.043 -7.663629,-0.15056 -11.107849,-0.54881 -3.444225,-0.39824 -6.414826,-1.00082 -8.319906,-1.42058 -1.90508,-0.41977 -2.744623,-0.65658 -5.198649,-1.50689 -2.45403,-0.8503 -6.522101,-2.31426 -10.343038,-4.15478 -3.8209377,-1.84052 -7.3943277,-4.05795 -10.5802328,-6.35052 -3.18590498,-2.29257 -5.984655,-4.66035 -8.740035,-7.43727 -2.7553796,-2.77692 -5.4675262,-5.962868 -7.8031412,-9.084201 -2.335615,-3.121333 -4.294486,-6.177725 -6.005835,-9.535852 -1.711349,-3.358127 -3.175029,-7.017501 -4.305164,-10.128064 -1.13013,-3.110563 -1.926543,-5.672102 -2.432409,-7.749398 -0.50587,-2.077295 -1.22357,-5.770918 -1.395781,-7.299296 -0.06874,-1.35363 -0.104508,-2.30473 -0.302307,-2.990515 z m 15.632638,0 c -0.08636,0.554499 -0.08311,1.361469 0.0067,2.852539 0.107637,1.7867 0.301105,4.434371 0.656291,6.877616 0.35519,2.443249 0.871844,4.681548 1.819011,7.45846 0.947167,2.776912 2.325002,6.092182 4.025594,9.353434 1.700588,3.261252 3.72384,6.468633 5.919535,9.320878 2.1956949,2.852246 4.5637255,5.349333 7.34063718,7.889439 2.77691172,2.54013 5.96286442,5.12316 8.70747882,6.99596 2.744614,1.8728 5.047472,3.03548 7.70599,4.28397 2.658513,1.24854 5.672412,2.58312 8.664587,3.56258 2.992175,0.97945 5.962526,1.60356 8.728666,2.10943 2.76614,0.50587 5.327834,0.89318 8.395353,1.04386 3.06752,0.15069 6.641239,0.0645 9.870199,-0.20464 3.22896,-0.26908 6.113134,-0.72078 8.78241,-1.33428 2.669271,-0.61351 5.123298,-1.38855 8.642883,-2.83084 3.519581,-1.44224 8.104911,-3.55205 12.108822,-5.97379 4.00391,-2.42174 7.426551,-5.15547 10.32185,-7.814 2.895299,-2.658488 5.262985,-5.241599 7.297229,-7.878584 2.034244,-2.636985 3.734504,-5.32756 5.219834,-7.986076 1.48533,-2.658512 2.75573,-5.284939 3.79977,-7.97574 1.04403,-2.690806 1.86194,-5.446064 2.36781,-8.061524 0.50587,-2.615456 0.69964,-5.090815 0.81804,-7.114294 0.11233,-1.919914 0.14898,-3.387266 0.0889,-4.272608 h -6.75566 C 103.65401,86.794353 78.257317,110.58458 47.169214,110.62581 15.996085,110.57564 -9.4701282,86.643248 -10.574548,56.571224 Z" /><ellipse
         style="opacity:0.99;fill:#e0b895;fill-opacity:1;stroke:#000000;stroke-width:2.49212;stroke-dasharray:none"
         id="path1-4-7"
         cx="47.150208"
         cy="54.662956"
         rx="49.114098"
         ry="47.558449" /><g
         id="g9"
         transform="matrix(1.016174,0,0,0.98334633,-1.6618282,1.6197846)"><path
           style="opacity:0.99;fill:#155771;fill-opacity:1;stroke:#000000;stroke-width:2.18838;stroke-dasharray:none"
           d="m -290.26394,78.995278 c -0.72876,-2.964391 -0.47044,-5.461393 0.79963,-8.647324 1.27008,-3.18593 3.55181,-7.06059 5.89821,-10.784684 2.3464,-3.724094 4.75729,-7.297379 7.62032,-10.35414 2.86303,-3.056761 6.17802,-5.596822 8.99799,-6.909928 2.81997,-1.313105 5.14477,-1.399208 7.62032,-0.861039 2.47555,0.53817 5.10171,1.700569 7.23283,3.013688 2.13112,1.313119 3.76709,2.776879 5.66143,4.800378 1.89433,2.023498 4.04692,4.606604 6.24263,7.469636 2.19571,2.863033 4.4344,6.005809 6.07041,8.588988 1.63601,2.583179 2.66925,4.606612 3.31504,6.543999 0.64579,1.937387 0.9041,3.788613 0.55967,6.13501 -0.34443,2.346396 -1.29156,5.18781 -2.79843,7.491145 -1.50686,2.303335 -3.57334,4.068455 -6.13501,5.338516 -2.56166,1.270061 -5.61833,2.044991 -9.17022,2.647733 -3.55188,0.602741 -7.59874,1.033258 -11.47351,1.097835 -3.87478,0.06458 -7.57724,-0.236787 -12.24746,-1.359525 -4.67021,-1.122737 -8.53129,-2.454146 -12.11219,-5.078026 -3.5809,-2.62388 -5.3529,-6.16787 -6.08166,-9.132262 z"
           id="path5"
           inkscape:path-effect="#path-effect5"
           inkscape:original-d="m -291.25103,78.527991 c 0.25834,-2.497103 0.51665,-4.994106 0.77497,-7.491158 2.28182,-3.874813 4.56356,-7.749471 6.84535,-11.62421 2.41102,-3.573438 4.8219,-7.146734 7.23286,-10.720104 3.3151,-2.540153 6.63009,-5.080209 9.94513,-7.620315 2.3249,-0.08611 4.6497,-0.172209 6.97454,-0.258315 2.62626,1.162444 5.25242,2.324843 7.87863,3.487264 1.63603,1.463818 3.272,2.927577 4.908,4.391366 2.15267,2.583212 4.30526,5.166318 6.4579,7.749474 2.23878,3.142906 4.47747,6.285682 6.71621,9.428525 1.03328,2.023514 2.06652,4.046947 3.09978,6.07042 0.25833,1.8513 0.51664,3.702526 0.77495,5.553789 -0.94718,2.84153 -1.89431,5.682946 -2.84147,8.52442 -2.06657,1.765194 -4.13305,3.530317 -6.19958,5.295474 -3.0568,0.774962 -6.11347,1.549894 -9.17021,2.324841 -4.04703,0.430535 -8.09389,0.861052 -12.14084,1.291579 -3.7026,-0.301374 -7.40506,-0.602737 -11.10759,-0.904105 -5.93267,-1.089284 -9.89876,-2.116161 -14.98229,-5.166315 -2.50557,-2.943418 -3.64595,-6.803222 -5.16634,-10.33263 z"
           transform="matrix(0.89655468,0,0,0.88710857,280.80323,9.4430289)"
           sodipodi:nodetypes="ccccccccccccccccccc" /><path
           style="opacity:0.99;fill:#d1c2a8;fill-opacity:1;stroke:#000000;stroke-width:2.18838;stroke-dasharray:none"
           d="m -290.26394,78.995278 c -0.72876,-2.964391 -0.47044,-5.461393 0.79963,-8.647324 1.27008,-3.18593 3.55181,-7.06059 5.89821,-10.784684 2.3464,-3.724094 4.75729,-7.297379 7.62032,-10.35414 2.86303,-3.056761 6.17802,-5.596822 8.99799,-6.909928 2.81997,-1.313105 5.14477,-1.399208 7.62032,-0.861039 2.47555,0.53817 5.10171,1.700569 7.23283,3.013688 2.13112,1.313119 3.76709,2.776879 5.66143,4.800378 1.89433,2.023498 4.04692,4.606604 6.24263,7.469636 2.19571,2.863033 4.4344,6.005809 6.07041,8.588988 1.63601,2.583179 2.66925,4.606612 3.31504,6.543999 0.64579,1.937387 0.9041,3.788613 0.55967,6.13501 -0.34443,2.346396 -1.29156,5.18781 -2.79843,7.491145 -1.50686,2.303335 -3.57334,4.068455 -6.13501,5.338516 -2.56166,1.270061 -5.61833,2.044991 -9.17022,2.647733 -3.55188,0.602741 -7.59874,1.033258 -11.47351,1.097835 -3.87478,0.06458 -7.57724,-0.236787 -12.24746,-1.359525 -4.67021,-1.122737 -8.53129,-2.454146 -12.11219,-5.078026 -3.5809,-2.62388 -5.3529,-6.16787 -6.08166,-9.132262 z"
           id="path5-9"
           inkscape:path-effect="#path-effect5-9"
           inkscape:original-d="m -291.25103,78.527991 c 0.25834,-2.497103 0.51665,-4.994106 0.77497,-7.491158 2.28182,-3.874813 4.56356,-7.749471 6.84535,-11.62421 2.41102,-3.573438 4.8219,-7.146734 7.23286,-10.720104 3.3151,-2.540153 6.63009,-5.080209 9.94513,-7.620315 2.3249,-0.08611 4.6497,-0.172209 6.97454,-0.258315 2.62626,1.162444 5.25242,2.324843 7.87863,3.487264 1.63603,1.463818 3.272,2.927577 4.908,4.391366 2.15267,2.583212 4.30526,5.166318 6.4579,7.749474 2.23878,3.142906 4.47747,6.285682 6.71621,9.428525 1.03328,2.023514 2.06652,4.046947 3.09978,6.07042 0.25833,1.8513 0.51664,3.702526 0.77495,5.553789 -0.94718,2.84153 -1.89431,5.682946 -2.84147,8.52442 -2.06657,1.765194 -4.13305,3.530317 -6.19958,5.295474 -3.0568,0.774962 -6.11347,1.549894 -9.17021,2.324841 -4.04703,0.430535 -8.09389,0.861052 -12.14084,1.291579 -3.7026,-0.301374 -7.40506,-0.602737 -11.10759,-0.904105 -5.93267,-1.089284 -9.89876,-2.116161 -14.98229,-5.166315 -2.50557,-2.943418 -3.64595,-6.803222 -5.16634,-10.33263 z"
           transform="matrix(0.55798428,0,0,0.55210535,192.64603,32.83242)"
           sodipodi:nodetypes="ccccccccccccccccccc" /><ellipse
           style="opacity:0.99;fill:#155771;fill-opacity:1;stroke:#000000;stroke-width:1.95163;stroke-dasharray:none"
           id="path6"
           cx="-2.0760586"
           cy="52.799419"
           rx="11.056686"
           ry="13.978402"
           transform="rotate(-22.593129)" /><ellipse
           style="opacity:0.99;fill:#d3c3a8;fill-opacity:1;stroke:#000000;stroke-width:1.21862;stroke-dasharray:none"
           id="path6-8"
           cx="-2.0630584"
           cy="52.724194"
           rx="6.9039111"
           ry="8.72826"
           transform="rotate(-22.593129)" /><ellipse
           style="opacity:0.99;fill:#155771;fill-opacity:1;stroke:#000000;stroke-width:1.95163;stroke-dasharray:none"
           id="path6-6"
           cx="-88.820648"
           cy="17.376072"
           rx="11.056686"
           ry="13.978402"
           transform="matrix(-0.9232563,-0.3841846,-0.3841846,0.9232563,0,0)" /><ellipse
           style="opacity:0.99;fill:#d3c3a8;fill-opacity:1;stroke:#000000;stroke-width:1.21862;stroke-dasharray:none"
           id="path6-8-4"
           cx="-89.169556"
           cy="17.486645"
           rx="6.9039111"
           ry="8.72826"
           transform="matrix(-0.9232563,-0.3841846,-0.3841846,0.9232563,0,0)" /><ellipse
           style="opacity:0.99;fill:#155771;fill-opacity:1;stroke:#000000;stroke-width:1.95163;stroke-dasharray:none"
           id="path6-6-3"
           cx="-64.245369"
           cy="20.611921"
           rx="11.056686"
           ry="13.978402"
           transform="matrix(-0.97670342,-0.21459365,-0.21459365,0.97670342,0,0)" /><ellipse
           style="opacity:0.99;fill:#155771;fill-opacity:1;stroke:#000000;stroke-width:1.95163;stroke-dasharray:none"
           id="path6-6-3-5"
           cx="27.535389"
           cy="40.379185"
           rx="11.056686"
           ry="13.978402"
           transform="rotate(-12.391689)" /><ellipse
           style="opacity:0.99;fill:#d3c3a8;fill-opacity:1;stroke:#000000;stroke-width:1.16008;stroke-dasharray:none"
           id="path6-6-3-5-5"
           cx="27.55336"
           cy="40.038536"
           rx="6.5722423"
           ry="8.3089485"
           transform="rotate(-12.391689)" /><ellipse
           style="opacity:0.99;fill:#d3c3a8;fill-opacity:1;stroke:#000000;stroke-width:1.16008;stroke-dasharray:none"
           id="path6-6-3-5-5-4"
           cx="-63.906162"
           cy="19.755903"
           rx="6.5722423"
           ry="8.3089485"
           transform="matrix(-0.97670342,-0.21459365,-0.21459365,0.97670342,0,0)" /><path
           style="opacity:0.99;fill:#000000;stroke:#000000;stroke-width:2.2;stroke-dasharray:none"
           d="m -279.84208,41.018391 c 0.16145,-0.559686 1.46377,0.699579 3.44962,1.37229 1.98584,0.67271 4.65504,0.758813 5.63987,1.124765 0.98483,0.365952 0.28524,1.011725 -0.72655,1.615862 -1.01179,0.604138 -2.33573,1.166602 -3.70265,2.372081 -1.36693,1.205479 -2.7768,3.053937 -3.60552,4.091191 -0.82872,1.037254 -1.07628,1.263288 -0.85563,0.251526 0.22065,-1.011763 0.90946,-3.261172 0.76415,-5.575298 -0.14531,-2.314126 -1.12473,-4.692731 -0.96329,-5.252417 z"
           id="path7"
           inkscape:path-effect="#path-effect7"
           inkscape:original-d="m -280.98297,39.199417 c 1.30234,1.259289 2.60466,2.518554 3.90703,3.777868 2.66932,0.08611 5.33852,0.172209 8.00779,0.258314 -0.69961,0.645803 -1.3992,1.291571 -2.09881,1.937369 -1.32397,0.562479 -2.64791,1.12494 -3.97187,1.687415 -1.40989,1.848485 -2.81976,3.696944 -4.22965,5.545426 -0.24755,0.226027 -0.49512,0.452053 -0.74266,0.678079 0.68885,-2.249545 1.37766,-4.498954 2.06651,-6.748499 -0.97947,-2.378706 -1.95889,-4.757313 -2.93834,-7.135972 z"
           sodipodi:nodetypes="ccccccccc"
           transform="matrix(0.88710857,0,0,0.88710857,278.05688,9.4430289)" /><path
           style="opacity:0.99;fill:#000000;stroke:#000000;stroke-width:2.2;stroke-dasharray:none"
           d="m -279.84208,41.018391 c 0.16145,-0.559686 1.46377,0.699579 3.44962,1.37229 1.98584,0.67271 4.65504,0.758813 5.63987,1.124765 0.98483,0.365952 0.28524,1.011725 -0.72655,1.615862 -1.01179,0.604138 -2.33573,1.166602 -3.70265,2.372081 -1.36693,1.205479 -2.7768,3.053937 -3.60552,4.091191 -0.82872,1.037254 -1.07628,1.263288 -0.85563,0.251526 0.22065,-1.011763 0.90946,-3.261172 0.76415,-5.575298 -0.14531,-2.314126 -1.12473,-4.692731 -0.96329,-5.252417 z"
           id="path7-4"
           inkscape:path-effect="#path-effect7-0"
           inkscape:original-d="m -280.98297,39.199417 c 1.30234,1.259289 2.60466,2.518554 3.90703,3.777868 2.66932,0.08611 5.33852,0.172209 8.00779,0.258314 -0.69961,0.645803 -1.3992,1.291571 -2.09881,1.937369 -1.32397,0.562479 -2.64791,1.12494 -3.97187,1.687415 -1.40989,1.848485 -2.81976,3.696944 -4.22965,5.545426 -0.24755,0.226027 -0.49512,0.452053 -0.74266,0.678079 0.68885,-2.249545 1.37766,-4.498954 2.06651,-6.748499 -0.97947,-2.378706 -1.95889,-4.757313 -2.93834,-7.135972 z"
           sodipodi:nodetypes="ccccccccc"
           transform="matrix(0.43542364,0.33974502,-0.356771,0.41464417,183.29316,118.61352)" /><path
           style="opacity:0.99;fill:#000000;stroke:#000000;stroke-width:2.2;stroke-dasharray:none"
           d="m -279.84208,41.018391 c 0.16145,-0.559686 1.46377,0.699579 3.44962,1.37229 1.98584,0.67271 4.65504,0.758813 5.63987,1.124765 0.98483,0.365952 0.28524,1.011725 -0.72655,1.615862 -1.01179,0.604138 -2.33573,1.166602 -3.70265,2.372081 -1.36693,1.205479 -2.7768,3.053937 -3.60552,4.091191 -0.82872,1.037254 -1.07628,1.263288 -0.85563,0.251526 0.22065,-1.011763 0.90946,-3.261172 0.76415,-5.575298 -0.14531,-2.314126 -1.12473,-4.692731 -0.96329,-5.252417 z"
           id="path7-1"
           inkscape:path-effect="#path-effect7-5"
           inkscape:original-d="m -280.98297,39.199417 c 1.30234,1.259289 2.60466,2.518554 3.90703,3.777868 2.66932,0.08611 5.33852,0.172209 8.00779,0.258314 -0.69961,0.645803 -1.3992,1.291571 -2.09881,1.937369 -1.32397,0.562479 -2.64791,1.12494 -3.97187,1.687415 -1.40989,1.848485 -2.81976,3.696944 -4.22965,5.545426 -0.24755,0.226027 -0.49512,0.452053 -0.74266,0.678079 0.68885,-2.249545 1.37766,-4.498954 2.06651,-6.748499 -0.97947,-2.378706 -1.95889,-4.757313 -2.93834,-7.135972 z"
           sodipodi:nodetypes="ccccccccc"
           transform="matrix(-0.88710857,0,0,0.88710857,-184.33317,9.7011673)" /><path
           style="opacity:0.99;fill:#000000;stroke:#000000;stroke-width:1.1;stroke-dasharray:none"
           d="m -290.06707,60.951755 c 0.31213,-0.01076 0.93639,-0.03229 1.50685,0.05382 0.57045,0.0861 1.08707,0.279839 1.32923,0.737281 0.24217,0.457442 0.20987,1.178559 0.0646,1.872788 -0.1453,0.694228 -0.40361,1.361533 -0.45742,1.684428 -0.0538,0.322894 0.0969,0.301368 0.92025,-0.866459 0.8234,-1.167827 2.31945,-3.481865 3.20203,-4.859549 0.88257,-1.377683 1.15165,-1.818965 0.23676,-1.549877 -0.91489,0.269089 -3.01367,1.24852 -4.39674,1.85664 -1.38307,0.60812 -2.05037,0.844903 -2.38402,0.963297 -0.33366,0.118394 -0.33363,0.118398 -0.0215,0.107635 z"
           id="path8"
           inkscape:path-effect="#path-effect8"
           inkscape:original-d="m -290.3792,60.962518 c 0.62426,-0.02154 1.24852,-0.04305 1.8728,-0.06458 0.51663,0.193739 1.03325,0.387472 1.54988,0.58121 -0.0323,0.721146 -0.0646,1.442263 -0.0969,2.163395 -0.25831,0.667327 -0.51662,1.33463 -0.77493,2.001946 0.15068,-0.02154 0.30136,-0.04305 0.45204,-0.06458 1.49611,-2.314126 2.99217,-4.628158 4.48823,-6.942236 0.26908,-0.441298 0.53816,-0.882578 0.80724,-1.323869 -2.09886,0.979466 -4.19764,1.958896 -6.29645,2.938344 -0.66733,0.236794 -1.33463,0.473577 -2.00194,0.710366 z"
           transform="matrix(0.88710857,0,0,0.88710857,278.17146,9.4430289)" /><path
           style="opacity:0.99;fill:#000000;stroke:#000000;stroke-width:1.1;stroke-dasharray:none"
           d="m -290.06707,60.951755 c 0.31213,-0.01076 0.93639,-0.03229 1.50685,0.05382 0.57045,0.0861 1.08707,0.279839 1.32923,0.737281 0.24217,0.457442 0.20987,1.178559 0.0646,1.872788 -0.1453,0.694228 -0.40361,1.361533 -0.45742,1.684428 -0.0538,0.322894 0.0969,0.301368 0.92025,-0.866459 0.8234,-1.167827 2.31945,-3.481865 3.20203,-4.859549 0.88257,-1.377683 1.15165,-1.818965 0.23676,-1.549877 -0.91489,0.269089 -3.01367,1.24852 -4.39674,1.85664 -1.38307,0.60812 -2.05037,0.844903 -2.38402,0.963297 -0.33366,0.118394 -0.33363,0.118398 -0.0215,0.107635 z"
           id="path8-7"
           inkscape:path-effect="#path-effect8-0"
           inkscape:original-d="m -290.3792,60.962518 c 0.62426,-0.02154 1.24852,-0.04305 1.8728,-0.06458 0.51663,0.193739 1.03325,0.387472 1.54988,0.58121 -0.0323,0.721146 -0.0646,1.442263 -0.0969,2.163395 -0.25831,0.667327 -0.51662,1.33463 -0.77493,2.001946 0.15068,-0.02154 0.30136,-0.04305 0.45204,-0.06458 1.49611,-2.314126 2.99217,-4.628158 4.48823,-6.942236 0.26908,-0.441298 0.53816,-0.882578 0.80724,-1.323869 -2.09886,0.979466 -4.19764,1.958896 -6.29645,2.938344 -0.66733,0.236794 -1.33463,0.473577 -2.00194,0.710366 z"
           transform="matrix(-0.88710857,0,0,0.88710857,-183.59181,10.156022)" /></g><ellipse
         style="opacity:0.99;fill:#cfc1a8;fill-opacity:1;stroke:#000000;stroke-width:1;stroke-dasharray:none"
         id="path9"
         cx="-24.110701"
         cy="48.312729"
         rx="3.6531365"
         ry="3.5618081" /><ellipse
         style="opacity:0.99;fill:#cfc1a8;fill-opacity:1;stroke:#000000;stroke-width:1;stroke-dasharray:none"
         id="path9-5"
         cx="115.97273"
         cy="48.146492"
         rx="3.6531365"
         ry="3.5618081" /></g><text
       xml:space="preserve"
       style="font-size:19.7556px;line-height:0.5;opacity:0.99;fill:#cfc1a8;fill-opacity:1;stroke:#000000;stroke-width:0;stroke-dasharray:none"
       id="text9"
       transform="matrix(1.0778432,-0.13880275,0.12772353,0.99180981,-139.21009,67.27172)"><textPath
         xlink:href="#path11"
         id="textPath11"><tspan
           id="tspan9"
           style="font-style:normal;font-variant:normal;font-weight:normal;font-stretch:normal;font-size:19.7556px;line-height:0.5;font-family:Haettenschweiler;-inkscape-font-specification:Haettenschweiler;stroke-width:0;stroke-dasharray:none">PAWS       SAFETY</tspan></textPath></text><circle
       style="opacity:0.99;fill:#ffffff;fill-opacity:1;stroke:#ffffff;stroke-width:0;stroke-dasharray:none;stroke-opacity:1"
       id="path11"
       cx="-622.59906"
       cy="901.37054"
       transform="rotate(-129.38619)"
       r="59.283466" /></g></svg>
