<?xml version="1.0" encoding="UTF-8" standalone="no"?>
<!-- Created with Inkscape (http://www.inkscape.org/) -->

<svg
   width="2.5rem"
   height="2.5rem"
   viewBox="0 0 90.374268 87.593361"
   version="1.1"
   id="svg1"
   xml:space="preserve"
   inkscape:version="1.3 (0e150ed6c4, 2023-07-21)"
   sodipodi:docname="logo finsl.svg"
   xmlns:inkscape="http://www.inkscape.org/namespaces/inkscape"
   xmlns:sodipodi="http://sodipodi.sourceforge.net/DTD/sodipodi-0.dtd"
   xmlns:xlink="http://www.w3.org/1999/xlink"
   xmlns="http://www.w3.org/2000/svg"
   xmlns:svg="http://www.w3.org/2000/svg"><sodipodi:namedview
     id="namedview1"
     pagecolor="#505050"
     bordercolor="#ffffff"
     borderopacity="1"
     inkscape:showpageshadow="0"
     inkscape:pageopacity="0"
     inkscape:pagecheckerboard="1"
     inkscape:deskcolor="#505050"
     inkscape:document-units="mm"
     showguides="false"
     inkscape:zoom="1.0242632"
     inkscape:cx="-680.48914"
     inkscape:cy="223.08719"
     inkscape:window-width="1920"
     inkscape:window-height="1009"
     inkscape:window-x="-8"
     inkscape:window-y="-8"
     inkscape:window-maximized="1"
     inkscape:current-layer="layer1"><sodipodi:guide
       position="232.63945,254.09698"
       orientation="1,0"
       id="guide1"
       inkscape:locked="false" /></sodipodi:namedview><defs
     id="defs1"><inkscape:path-effect
       effect="bspline"
       id="path-effect5-7"
       is_visible="true"
       lpeversion="1.3"
       weight="33.333333"
       steps="2"
       helper_size="0"
       apply_no_weight="true"
       apply_with_weight="true"
       only_selected="false"
       uniform="false" /><inkscape:path-effect
       effect="bspline"
       id="path-effect5-9-5"
       is_visible="true"
       lpeversion="1.3"
       weight="33.333333"
       steps="2"
       helper_size="0"
       apply_no_weight="true"
       apply_with_weight="true"
       only_selected="false"
       uniform="false" /><inkscape:path-effect
       effect="bspline"
       id="path-effect7-01"
       is_visible="true"
       lpeversion="1.3"
       weight="33.333333"
       steps="2"
       helper_size="0"
       apply_no_weight="true"
       apply_with_weight="true"
       only_selected="false"
       uniform="false" /><inkscape:path-effect
       effect="bspline"
       id="path-effect7-0-4"
       is_visible="true"
       lpeversion="1.3"
       weight="33.333333"
       steps="2"
       helper_size="0"
       apply_no_weight="true"
       apply_with_weight="true"
       only_selected="false"
       uniform="false" /><inkscape:path-effect
       effect="bspline"
       id="path-effect7-5-2"
       is_visible="true"
       lpeversion="1.3"
       weight="33.333333"
       steps="2"
       helper_size="0"
       apply_no_weight="true"
       apply_with_weight="true"
       only_selected="false"
       uniform="false" /><inkscape:path-effect
       effect="bspline"
       id="path-effect8-4"
       is_visible="true"
       lpeversion="1.3"
       weight="33.333333"
       steps="2"
       helper_size="0"
       apply_no_weight="true"
       apply_with_weight="true"
       only_selected="false"
       uniform="false" /><inkscape:path-effect
       effect="bspline"
       id="path-effect8-0-5"
       is_visible="true"
       lpeversion="1.3"
       weight="33.333333"
       steps="2"
       helper_size="0"
       apply_no_weight="true"
       apply_with_weight="true"
       only_selected="false"
       uniform="false" /></defs><g
     inkscape:label="Camada 1"
     inkscape:groupmode="layer"
     id="layer1"
     transform="translate(-67.202654,-140.76803)"><g
       id="g11"
       transform="matrix(0.54646539,0,0,0.54646539,200.04706,170.30511)"
       inkscape:export-filename="logo_oficial_contorno.svg"
       inkscape:export-xdpi="96"
       inkscape:export-ydpi="96"><path
         id="path1-9"
         style="opacity:0.99;fill:#ffffff;stroke:#ffffff;stroke-width:2.241;stroke-dasharray:none"
         d="m -160.2274,-52.930639 c -40.10093,0.06546 -73.98569,28.283383 -80.39251,66.229033 h 6.05441 c 0.14187,-1.088676 0.27462,-2.14017 0.40566,-3.088701 0.22603,-1.636 0.37643,-2.604628 0.5917,-3.121256 0.21526,-0.516632 0.49508,-0.581199 1.62522,-0.624251 1.13015,-0.04305 3.11072,-0.06468 4.33772,-0.07545 1.227,-0.01076 1.7004,-0.01066 1.98024,0.07545 0.27984,0.0861 0.3663,0.257864 0.35554,0.946712 -0.0108,0.688848 -0.11873,1.894723 -0.29094,3.304708 -0.10624,0.869795 -0.19641,1.711498 -0.29869,2.582788 h 10.69495 c 6.60358,-24.118411 29.18123,-41.562667 55.69479,-41.658439 26.45195,0.04536 49.30071,17.434974 55.87773,41.960229 h 8.271332 c -0.10348,-0.999986 -0.23471,-2.052269 -0.34985,-2.938839 -0.21526,-1.657525 -0.34468,-2.647285 -0.34468,-3.260782 0,-0.613502 0.12917,-0.850361 0.75344,-0.947229 0.62427,-0.09687 1.74387,-0.05383 2.97088,-0.0646 1.227009,-0.01076 1.054599,0.01577 1.915639,0.04806 0.86106,0.03229 1.70528,-0.06651 1.888261,0.202572 0.182969,0.269082 0.75494,0.860137 0.873329,2.20555 0.10773,1.224128 0.67493,3.154926 0.92036,4.755265 h 6.965981 c -6.287491,-38.138926 -40.287272,-66.495816 -80.500512,-66.53082 z m -81.66065,82.632166 c 3.14881,41.151117 38.9333,75.316853 81.66065,75.417613 43.49027,-0.0833 79.191721,-33.164816 81.330441,-75.115823 h -7.46518 c -0.12855,0.572823 -0.21618,1.377872 -0.3638,2.647384 -0.16145,1.388461 -0.39818,3.218013 -0.80719,5.424475 -0.409,2.206462 -0.99068,4.789827 -2.24999,8.352462 -1.25931,3.56263 -3.19641,8.104426 -5.63428,12.570296 -2.43787,4.46586 -5.376311,8.8555 -8.124051,12.29847 -2.74778,3.442967 -5.30505,5.939527 -7.64915,8.024827 -2.34411,2.08535 -4.47507,3.75942 -6.26938,5.0953 -1.79432,1.33588 -3.25146,2.33353 -6.00377,3.81165 -2.75231,1.47816 -6.7992,3.43671 -11.07219,5.02967 -4.273,1.59296 -8.77233,2.82 -12.80853,3.57343 -4.0362,0.75342 -7.60926,1.03337 -11.35486,1.07642 -3.7456,0.043 -7.66363,-0.15056 -11.10785,-0.54881 -3.44422,-0.39824 -6.41482,-1.00082 -8.3199,-1.42058 -1.90508,-0.41977 -2.74463,-0.65658 -5.19865,-1.50689 -2.45403,-0.8503 -6.5221,-2.31426 -10.34304,-4.15478 -3.82094,-1.84052 -7.39433,-4.05795 -10.58023,-6.35052 -3.18591,-2.29257 -5.98466,-4.66035 -8.74004,-7.43727 -2.75538,-2.776917 -5.46752,-5.962867 -7.80314,-9.084197 -2.33561,-3.12134 -4.29448,-6.17773 -6.00583,-9.53585 -1.71135,-3.35813 -3.17503,-7.017505 -4.30517,-10.128068 -1.13013,-3.110563 -1.92654,-5.672102 -2.4324,-7.749398 -0.50587,-2.077295 -1.22357,-5.770918 -1.39579,-7.299296 -0.0687,-1.35363 -0.1045,-2.30473 -0.3023,-2.990515 z m 15.63264,0 c -0.0864,0.554499 -0.0831,1.361469 0.007,2.852539 0.10764,1.7867 0.30111,4.434371 0.65629,6.877616 0.35519,2.443249 0.87185,4.681548 1.81901,7.45846 0.94717,2.776912 2.32501,6.092182 4.0256,9.353432 1.70058,3.26125 3.72384,6.46863 5.91953,9.32088 2.1957,2.85225 4.56373,5.34933 7.34064,7.88944 2.77691,2.540127 5.96286,5.123157 8.70748,6.995957 2.74461,1.8728 5.04747,3.03548 7.70599,4.28397 2.65851,1.24854 5.67241,2.58312 8.66458,3.56258 2.99218,0.97945 5.96253,1.60356 8.72867,2.10943 2.76614,0.50587 5.32783,0.89318 8.39535,1.04386 3.06752,0.15069 6.64124,0.0645 9.8702,-0.20464 3.22896,-0.26908 6.11314,-0.72078 8.78241,-1.33428 2.66927,-0.61351 5.1233,-1.38855 8.64288,-2.83084 3.51959,-1.44224 8.10492,-3.55205 12.10883,-5.97379 4.00391,-2.42174 7.42655,-5.15547 10.32185,-7.813997 2.8953,-2.65849 5.26298,-5.2416 7.29723,-7.87859 2.03424,-2.63698 3.7345,-5.32756 5.21983,-7.98607 1.48533,-2.65851 2.755732,-5.28494 3.799772,-7.975741 1.04403,-2.690806 1.86194,-5.446064 2.36781,-8.061524 0.50587,-2.615456 0.69964,-5.090815 0.81804,-7.114294 0.11233,-1.919914 0.14898,-3.387266 0.0889,-4.272608 h -6.755662 c -1.26103,29.921337 -26.65772,53.711564 -57.74583,53.752794 -31.17313,-0.0502 -56.63934,-23.982557 -57.74376,-54.054584 z" /><ellipse
         style="opacity:0.99;fill:none;fill-opacity:1;stroke:#ffffff;stroke-width:2.49212;stroke-dasharray:none"
         id="path1-4-7-4"
         cx="-159.4883"
         cy="27.793259"
         rx="49.114098"
         ry="47.558449" /><path
         style="opacity:0.99;fill:none;fill-opacity:1;stroke:#ffffff;stroke-width:2.18838;stroke-dasharray:none"
         d="m -290.26394,78.995278 c -0.72876,-2.964391 -0.47044,-5.461393 0.79963,-8.647324 1.27008,-3.18593 3.55181,-7.06059 5.89821,-10.784684 2.3464,-3.724094 4.75729,-7.297379 7.62032,-10.35414 2.86303,-3.056761 6.17802,-5.596822 8.99799,-6.909928 2.81997,-1.313105 5.14477,-1.399208 7.62032,-0.861039 2.47555,0.53817 5.10171,1.700569 7.23283,3.013688 2.13112,1.313119 3.76709,2.776879 5.66143,4.800378 1.89433,2.023498 4.04692,4.606604 6.24263,7.469636 2.19571,2.863033 4.4344,6.005809 6.07041,8.588988 1.63601,2.583179 2.66925,4.606612 3.31504,6.543999 0.64579,1.937387 0.9041,3.788613 0.55967,6.13501 -0.34443,2.346396 -1.29156,5.18781 -2.79843,7.491145 -1.50686,2.303335 -3.57334,4.068455 -6.13501,5.338516 -2.56166,1.270061 -5.61833,2.044991 -9.17022,2.647733 -3.55188,0.602741 -7.59874,1.033258 -11.47351,1.097835 -3.87478,0.06458 -7.57724,-0.236787 -12.24746,-1.359525 -4.67021,-1.122737 -8.53129,-2.454146 -12.11219,-5.078026 -3.5809,-2.62388 -5.3529,-6.16787 -6.08166,-9.132262 z"
         id="path5-5"
         inkscape:path-effect="#path-effect5-7"
         inkscape:original-d="m -291.25103,78.527991 c 0.25834,-2.497103 0.51665,-4.994106 0.77497,-7.491158 2.28182,-3.874813 4.56356,-7.749471 6.84535,-11.62421 2.41102,-3.573438 4.8219,-7.146734 7.23286,-10.720104 3.3151,-2.540153 6.63009,-5.080209 9.94513,-7.620315 2.3249,-0.08611 4.6497,-0.172209 6.97454,-0.258315 2.62626,1.162444 5.25242,2.324843 7.87863,3.487264 1.63603,1.463818 3.272,2.927577 4.908,4.391366 2.15267,2.583212 4.30526,5.166318 6.4579,7.749474 2.23878,3.142906 4.47747,6.285682 6.71621,9.428525 1.03328,2.023514 2.06652,4.046947 3.09978,6.07042 0.25833,1.8513 0.51664,3.702526 0.77495,5.553789 -0.94718,2.84153 -1.89431,5.682946 -2.84147,8.52442 -2.06657,1.765194 -4.13305,3.530317 -6.19958,5.295474 -3.0568,0.774962 -6.11347,1.549894 -9.17021,2.324841 -4.04703,0.430535 -8.09389,0.861052 -12.14084,1.291579 -3.7026,-0.301374 -7.40506,-0.602737 -11.10759,-0.904105 -5.93267,-1.089284 -9.89876,-2.116161 -14.98229,-5.166315 -2.50557,-2.943418 -3.64595,-6.803222 -5.16634,-10.33263 z"
         transform="matrix(0.91105556,0,0,0.87233496,77.044591,-15.964144)"
         sodipodi:nodetypes="ccccccccccccccccccc" /><path
         style="opacity:0.99;fill:#ffffff;fill-opacity:1;stroke:#ffffff;stroke-width:2.18838;stroke-dasharray:none"
         d="m -290.26394,78.995278 c -0.72876,-2.964391 -0.47044,-5.461393 0.79963,-8.647324 1.27008,-3.18593 3.55181,-7.06059 5.89821,-10.784684 2.3464,-3.724094 4.75729,-7.297379 7.62032,-10.35414 2.86303,-3.056761 6.17802,-5.596822 8.99799,-6.909928 2.81997,-1.313105 5.14477,-1.399208 7.62032,-0.861039 2.47555,0.53817 5.10171,1.700569 7.23283,3.013688 2.13112,1.313119 3.76709,2.776879 5.66143,4.800378 1.89433,2.023498 4.04692,4.606604 6.24263,7.469636 2.19571,2.863033 4.4344,6.005809 6.07041,8.588988 1.63601,2.583179 2.66925,4.606612 3.31504,6.543999 0.64579,1.937387 0.9041,3.788613 0.55967,6.13501 -0.34443,2.346396 -1.29156,5.18781 -2.79843,7.491145 -1.50686,2.303335 -3.57334,4.068455 -6.13501,5.338516 -2.56166,1.270061 -5.61833,2.044991 -9.17022,2.647733 -3.55188,0.602741 -7.59874,1.033258 -11.47351,1.097835 -3.87478,0.06458 -7.57724,-0.236787 -12.24746,-1.359525 -4.67021,-1.122737 -8.53129,-2.454146 -12.11219,-5.078026 -3.5809,-2.62388 -5.3529,-6.16787 -6.08166,-9.132262 z"
         id="path5-9-6"
         inkscape:path-effect="#path-effect5-9-5"
         inkscape:original-d="m -291.25103,78.527991 c 0.25834,-2.497103 0.51665,-4.994106 0.77497,-7.491158 2.28182,-3.874813 4.56356,-7.749471 6.84535,-11.62421 2.41102,-3.573438 4.8219,-7.146734 7.23286,-10.720104 3.3151,-2.540153 6.63009,-5.080209 9.94513,-7.620315 2.3249,-0.08611 4.6497,-0.172209 6.97454,-0.258315 2.62626,1.162444 5.25242,2.324843 7.87863,3.487264 1.63603,1.463818 3.272,2.927577 4.908,4.391366 2.15267,2.583212 4.30526,5.166318 6.4579,7.749474 2.23878,3.142906 4.47747,6.285682 6.71621,9.428525 1.03328,2.023514 2.06652,4.046947 3.09978,6.07042 0.25833,1.8513 0.51664,3.702526 0.77495,5.553789 -0.94718,2.84153 -1.89431,5.682946 -2.84147,8.52442 -2.06657,1.765194 -4.13305,3.530317 -6.19958,5.295474 -3.0568,0.774962 -6.11347,1.549894 -9.17021,2.324841 -4.04703,0.430535 -8.09389,0.861052 -12.14084,1.291579 -3.7026,-0.301374 -7.40506,-0.602737 -11.10759,-0.904105 -5.93267,-1.089284 -9.89876,-2.116161 -14.98229,-5.166315 -2.50557,-2.943418 -3.64595,-6.803222 -5.16634,-10.33263 z"
         transform="matrix(0.56700912,0,0,0.54291077,-12.538463,7.0357277)"
         sodipodi:nodetypes="ccccccccccccccccccc" /><ellipse
         style="opacity:0.99;fill:none;fill-opacity:1;stroke:#ffffff;stroke-width:1.95116;stroke-dasharray:none"
         id="path6-1"
         cx="-183.53268"
         cy="-49.076588"
         rx="11.182686"
         ry="13.814299"
         transform="matrix(0.92761815,-0.37352987,0.39503605,0.91866562,0,0)" /><ellipse
         style="opacity:0.99;fill:#ffffff;fill-opacity:1;stroke:#ffffff;stroke-width:1.21833;stroke-dasharray:none"
         id="path6-8-0"
         cx="-183.51955"
         cy="-49.150932"
         rx="6.9825864"
         ry="8.6257925"
         transform="matrix(0.92761815,-0.37352987,0.39503605,0.91866562,0,0)" /><ellipse
         style="opacity:0.99;fill:none;fill-opacity:1;stroke:#ffffff;stroke-width:1.95116;stroke-dasharray:none"
         id="path6-6-6"
         cx="111.55482"
         cy="71.570969"
         rx="11.182686"
         ry="13.814299"
         transform="matrix(-0.92761815,-0.37352987,-0.39503604,0.91866562,0,0)" /><ellipse
         style="opacity:0.99;fill:#ffffff;fill-opacity:1;stroke:#ffffff;stroke-width:1.21833;stroke-dasharray:none"
         id="path6-8-4-0"
         cx="111.20193"
         cy="71.680244"
         rx="6.9825864"
         ry="8.6257925"
         transform="matrix(-0.92761815,-0.37352987,-0.39503604,0.91866562,0,0)" /><ellipse
         style="opacity:0.99;fill:none;fill-opacity:1;stroke:#ffffff;stroke-width:1.95099;stroke-dasharray:none"
         id="path6-6-3-7"
         cx="143.55197"
         cy="38.923573"
         rx="11.219061"
         ry="13.767078"
         transform="matrix(-0.9781361,-0.20796578,-0.22141177,0.97518041,0,0)" /><ellipse
         style="opacity:0.99;fill:none;fill-opacity:1;stroke:#ffffff;stroke-width:1.95099;stroke-dasharray:none"
         id="path6-6-3-5-6"
         cx="-169.61874"
         cy="-28.254906"
         rx="11.219061"
         ry="13.767078"
         transform="matrix(0.9781361,-0.20796578,0.22141177,0.97518041,0,0)" /><ellipse
         style="opacity:0.99;fill:#ffffff;fill-opacity:1;stroke:#ffffff;stroke-width:1.1597;stroke-dasharray:none"
         id="path6-6-3-5-5-3"
         cx="-169.60051"
         cy="-28.590405"
         rx="6.6687598"
         ry="8.1833344"
         transform="matrix(0.9781361,-0.20796578,0.22141177,0.97518041,0,0)" /><ellipse
         style="opacity:0.99;fill:#ffffff;fill-opacity:1;stroke:#ffffff;stroke-width:1.1597;stroke-dasharray:none"
         id="path6-6-3-5-5-4-6"
         cx="143.89616"
         cy="38.080494"
         rx="6.6687598"
         ry="8.1833344"
         transform="matrix(-0.9781361,-0.20796578,-0.22141177,0.97518041,0,0)" /><path
         style="opacity:0.99;fill:#ffffff;stroke:#ffffff;stroke-width:2.2;stroke-dasharray:none"
         d="m -279.84208,41.018391 c 0.16145,-0.559686 1.46377,0.699579 3.44962,1.37229 1.98584,0.67271 4.65504,0.758813 5.63987,1.124765 0.98483,0.365952 0.28524,1.011725 -0.72655,1.615862 -1.01179,0.604138 -2.33573,1.166602 -3.70265,2.372081 -1.36693,1.205479 -2.7768,3.053937 -3.60552,4.091191 -0.82872,1.037254 -1.07628,1.263288 -0.85563,0.251526 0.22065,-1.011763 0.90946,-3.261172 0.76415,-5.575298 -0.14531,-2.314126 -1.12473,-4.692731 -0.96329,-5.252417 z"
         id="path7-7"
         inkscape:path-effect="#path-effect7-01"
         inkscape:original-d="m -280.98297,39.199417 c 1.30234,1.259289 2.60466,2.518554 3.90703,3.777868 2.66932,0.08611 5.33852,0.172209 8.00779,0.258314 -0.69961,0.645803 -1.3992,1.291571 -2.09881,1.937369 -1.32397,0.562479 -2.64791,1.12494 -3.97187,1.687415 -1.40989,1.848485 -2.81976,3.696944 -4.22965,5.545426 -0.24755,0.226027 -0.49512,0.452053 -0.74266,0.678079 0.68885,-2.249545 1.37766,-4.498954 2.06651,-6.748499 -0.97947,-2.378706 -1.95889,-4.757313 -2.93834,-7.135972 z"
         sodipodi:nodetypes="ccccccccc"
         transform="matrix(0.90145666,0,0,0.87233496,74.253822,-15.964144)" /><path
         style="opacity:0.99;fill:#ffffff;stroke:#ffffff;stroke-width:2.2;stroke-dasharray:none"
         d="m -279.84208,41.018391 c 0.16145,-0.559686 1.46377,0.699579 3.44962,1.37229 1.98584,0.67271 4.65504,0.758813 5.63987,1.124765 0.98483,0.365952 0.28524,1.011725 -0.72655,1.615862 -1.01179,0.604138 -2.33573,1.166602 -3.70265,2.372081 -1.36693,1.205479 -2.7768,3.053937 -3.60552,4.091191 -0.82872,1.037254 -1.07628,1.263288 -0.85563,0.251526 0.22065,-1.011763 0.90946,-3.261172 0.76415,-5.575298 -0.14531,-2.314126 -1.12473,-4.692731 -0.96329,-5.252417 z"
         id="path7-4-3"
         inkscape:path-effect="#path-effect7-0-4"
         inkscape:original-d="m -280.98297,39.199417 c 1.30234,1.259289 2.60466,2.518554 3.90703,3.777868 2.66932,0.08611 5.33852,0.172209 8.00779,0.258314 -0.69961,0.645803 -1.3992,1.291571 -2.09881,1.937369 -1.32397,0.562479 -2.64791,1.12494 -3.97187,1.687415 -1.40989,1.848485 -2.81976,3.696944 -4.22965,5.545426 -0.24755,0.226027 -0.49512,0.452053 -0.74266,0.678079 0.68885,-2.249545 1.37766,-4.498954 2.06651,-6.748499 -0.97947,-2.378706 -1.95889,-4.757313 -2.93834,-7.135972 z"
         sodipodi:nodetypes="ccccccccc"
         transform="matrix(0.44246618,0.33408702,-0.36254141,0.40773882,-22.042606,91.388258)" /><path
         style="opacity:0.99;fill:#ffffff;stroke:#ffffff;stroke-width:2.2;stroke-dasharray:none"
         d="m -279.84208,41.018391 c 0.16145,-0.559686 1.46377,0.699579 3.44962,1.37229 1.98584,0.67271 4.65504,0.758813 5.63987,1.124765 0.98483,0.365952 0.28524,1.011725 -0.72655,1.615862 -1.01179,0.604138 -2.33573,1.166602 -3.70265,2.372081 -1.36693,1.205479 -2.7768,3.053937 -3.60552,4.091191 -0.82872,1.037254 -1.07628,1.263288 -0.85563,0.251526 0.22065,-1.011763 0.90946,-3.261172 0.76415,-5.575298 -0.14531,-2.314126 -1.12473,-4.692731 -0.96329,-5.252417 z"
         id="path7-1-4"
         inkscape:path-effect="#path-effect7-5-2"
         inkscape:original-d="m -280.98297,39.199417 c 1.30234,1.259289 2.60466,2.518554 3.90703,3.777868 2.66932,0.08611 5.33852,0.172209 8.00779,0.258314 -0.69961,0.645803 -1.3992,1.291571 -2.09881,1.937369 -1.32397,0.562479 -2.64791,1.12494 -3.97187,1.687415 -1.40989,1.848485 -2.81976,3.696944 -4.22965,5.545426 -0.24755,0.226027 -0.49512,0.452053 -0.74266,0.678079 0.68885,-2.249545 1.37766,-4.498954 2.06651,-6.748499 -0.97947,-2.378706 -1.95889,-4.757313 -2.93834,-7.135972 z"
         sodipodi:nodetypes="ccccccccc"
         transform="matrix(-0.90145666,0,0,0.87233496,-395.61492,-15.710305)" /><path
         style="opacity:0.99;fill:#ffffff;stroke:#ffffff;stroke-width:1.1;stroke-dasharray:none"
         d="m -290.06707,60.951755 c 0.31213,-0.01076 0.93639,-0.03229 1.50685,0.05382 0.57045,0.0861 1.08707,0.279839 1.32923,0.737281 0.24217,0.457442 0.20987,1.178559 0.0646,1.872788 -0.1453,0.694228 -0.40361,1.361533 -0.45742,1.684428 -0.0538,0.322894 0.0969,0.301368 0.92025,-0.866459 0.8234,-1.167827 2.31945,-3.481865 3.20203,-4.859549 0.88257,-1.377683 1.15165,-1.818965 0.23676,-1.549877 -0.91489,0.269089 -3.01367,1.24852 -4.39674,1.85664 -1.38307,0.60812 -2.05037,0.844903 -2.38402,0.963297 -0.33366,0.118394 -0.33363,0.118398 -0.0215,0.107635 z"
         id="path8-3"
         inkscape:path-effect="#path-effect8-4"
         inkscape:original-d="m -290.3792,60.962518 c 0.62426,-0.02154 1.24852,-0.04305 1.8728,-0.06458 0.51663,0.193739 1.03325,0.387472 1.54988,0.58121 -0.0323,0.721146 -0.0646,1.442263 -0.0969,2.163395 -0.25831,0.667327 -0.51662,1.33463 -0.77493,2.001946 0.15068,-0.02154 0.30136,-0.04305 0.45204,-0.06458 1.49611,-2.314126 2.99217,-4.628158 4.48823,-6.942236 0.26908,-0.441298 0.53816,-0.882578 0.80724,-1.323869 -2.09886,0.979466 -4.19764,1.958896 -6.29645,2.938344 -0.66733,0.236794 -1.33463,0.473577 -2.00194,0.710366 z"
         transform="matrix(0.90145666,0,0,0.87233496,74.370255,-15.964144)" /><path
         style="opacity:0.99;fill:#ffffff;stroke:#ffffff;stroke-width:1.1;stroke-dasharray:none"
         d="m -290.06707,60.951755 c 0.31213,-0.01076 0.93639,-0.03229 1.50685,0.05382 0.57045,0.0861 1.08707,0.279839 1.32923,0.737281 0.24217,0.457442 0.20987,1.178559 0.0646,1.872788 -0.1453,0.694228 -0.40361,1.361533 -0.45742,1.684428 -0.0538,0.322894 0.0969,0.301368 0.92025,-0.866459 0.8234,-1.167827 2.31945,-3.481865 3.20203,-4.859549 0.88257,-1.377683 1.15165,-1.818965 0.23676,-1.549877 -0.91489,0.269089 -3.01367,1.24852 -4.39674,1.85664 -1.38307,0.60812 -2.05037,0.844903 -2.38402,0.963297 -0.33366,0.118394 -0.33363,0.118398 -0.0215,0.107635 z"
         id="path8-7-2"
         inkscape:path-effect="#path-effect8-0-5"
         inkscape:original-d="m -290.3792,60.962518 c 0.62426,-0.02154 1.24852,-0.04305 1.8728,-0.06458 0.51663,0.193739 1.03325,0.387472 1.54988,0.58121 -0.0323,0.721146 -0.0646,1.442263 -0.0969,2.163395 -0.25831,0.667327 -0.51662,1.33463 -0.77493,2.001946 0.15068,-0.02154 0.30136,-0.04305 0.45204,-0.06458 1.49611,-2.314126 2.99217,-4.628158 4.48823,-6.942236 0.26908,-0.441298 0.53816,-0.882578 0.80724,-1.323869 -2.09886,0.979466 -4.19764,1.958896 -6.29645,2.938344 -0.66733,0.236794 -1.33463,0.473577 -2.00194,0.710366 z"
         transform="matrix(-0.90145666,0,0,0.87233496,-394.86157,-15.263025)" /><ellipse
         style="opacity:0.99;fill:#ffffff;fill-opacity:1;stroke:#ffffff;stroke-width:1;stroke-dasharray:none"
         id="path9-7"
         cx="-230.74921"
         cy="21.443031"
         rx="3.6531365"
         ry="3.5618081" /><ellipse
         style="opacity:0.99;fill:#ffffff;fill-opacity:1;stroke:#ffffff;stroke-width:1;stroke-dasharray:none"
         id="path9-5-6"
         cx="-90.665787"
         cy="21.276794"
         rx="3.6531365"
         ry="3.5618081" /></g><text
       xml:space="preserve"
       style="font-size:19.7556px;line-height:0.5;opacity:0.99;fill:#cfc1a8;fill-opacity:1;stroke:#000000;stroke-width:0;stroke-dasharray:none"
       id="text9"
       transform="matrix(1.0778432,-0.13880275,0.12772353,0.99180981,-139.21009,67.27172)"><textPath
         xlink:href="#path11"
         id="textPath11"><tspan
           id="tspan9"
           style="font-style:normal;font-variant:normal;font-weight:normal;font-stretch:normal;font-size:19.7556px;line-height:0.5;font-family:Haettenschweiler;-inkscape-font-specification:Haettenschweiler;stroke-width:0;stroke-dasharray:none">PAWS       SAFETY</tspan></textPath></text><circle
       style="opacity:0.99;fill:#ffffff;fill-opacity:1;stroke:#ffffff;stroke-width:0;stroke-dasharray:none;stroke-opacity:1"
       id="path11"
       cx="-622.59906"
       cy="901.37054"
       transform="rotate(-129.38619)"
       r="59.283466" /></g></svg>
